<mxfile host="app.diagrams.net" modified="2020-10-11T17:15:43.701Z" agent="5.0 (Windows)" etag="YPm7q7TB2h8jekGUJ7rS" version="13.7.9" type="github" pages="3">
  <diagram id="C5RBs43oDa-KdzZeNtuy" name="Page-1">
    <mxGraphModel dx="1320" dy="513" grid="1" gridSize="10" guides="1" tooltips="1" connect="1" arrows="1" fold="1" page="1" pageScale="1" pageWidth="827" pageHeight="1169" math="0" shadow="0">
      <root>
        <mxCell id="WIyWlLk6GJQsqaUBKTNV-0" />
        <mxCell id="WIyWlLk6GJQsqaUBKTNV-1" parent="WIyWlLk6GJQsqaUBKTNV-0" />
        <mxCell id="WIyWlLk6GJQsqaUBKTNV-2" value="" style="rounded=0;html=1;jettySize=auto;orthogonalLoop=1;fontSize=11;endArrow=block;endFill=0;endSize=8;strokeWidth=1;shadow=0;labelBackgroundColor=none;edgeStyle=orthogonalEdgeStyle;" parent="WIyWlLk6GJQsqaUBKTNV-1" source="WIyWlLk6GJQsqaUBKTNV-3" target="WIyWlLk6GJQsqaUBKTNV-6" edge="1">
          <mxGeometry relative="1" as="geometry" />
        </mxCell>
        <mxCell id="WIyWlLk6GJQsqaUBKTNV-3" value="&lt;div&gt;int res&lt;br&gt;&lt;/div&gt;" style="rounded=1;whiteSpace=wrap;html=1;fontSize=12;glass=0;strokeWidth=1;shadow=0;" parent="WIyWlLk6GJQsqaUBKTNV-1" vertex="1">
          <mxGeometry x="180" y="100" width="80" height="40" as="geometry" />
        </mxCell>
        <mxCell id="WIyWlLk6GJQsqaUBKTNV-4" value="F" style="rounded=0;html=1;jettySize=auto;orthogonalLoop=1;fontSize=11;endArrow=block;endFill=0;endSize=8;strokeWidth=1;shadow=0;labelBackgroundColor=none;edgeStyle=orthogonalEdgeStyle;" parent="WIyWlLk6GJQsqaUBKTNV-1" source="WIyWlLk6GJQsqaUBKTNV-6" target="WIyWlLk6GJQsqaUBKTNV-10" edge="1">
          <mxGeometry y="20" relative="1" as="geometry">
            <mxPoint as="offset" />
          </mxGeometry>
        </mxCell>
        <mxCell id="VV4j1f6UAE6JIWvA8AAO-2" style="edgeStyle=orthogonalEdgeStyle;rounded=0;orthogonalLoop=1;jettySize=auto;html=1;exitX=1;exitY=0.5;exitDx=0;exitDy=0;entryX=0;entryY=0.5;entryDx=0;entryDy=0;" edge="1" parent="WIyWlLk6GJQsqaUBKTNV-1" source="WIyWlLk6GJQsqaUBKTNV-6">
          <mxGeometry relative="1" as="geometry">
            <mxPoint x="320" y="210" as="targetPoint" />
          </mxGeometry>
        </mxCell>
        <mxCell id="WIyWlLk6GJQsqaUBKTNV-6" value="score&amp;lt;0 || score&amp;gt;10" style="rhombus;whiteSpace=wrap;html=1;shadow=0;fontFamily=Helvetica;fontSize=12;align=center;strokeWidth=1;spacing=6;spacingTop=-4;" parent="WIyWlLk6GJQsqaUBKTNV-1" vertex="1">
          <mxGeometry x="170" y="170" width="100" height="50" as="geometry" />
        </mxCell>
        <mxCell id="WIyWlLk6GJQsqaUBKTNV-8" value="F" style="rounded=0;html=1;jettySize=auto;orthogonalLoop=1;fontSize=11;endArrow=block;endFill=0;endSize=8;strokeWidth=1;shadow=0;labelBackgroundColor=none;edgeStyle=orthogonalEdgeStyle;" parent="WIyWlLk6GJQsqaUBKTNV-1" source="WIyWlLk6GJQsqaUBKTNV-10" target="WIyWlLk6GJQsqaUBKTNV-11" edge="1">
          <mxGeometry x="0.3333" y="20" relative="1" as="geometry">
            <mxPoint as="offset" />
          </mxGeometry>
        </mxCell>
        <mxCell id="WIyWlLk6GJQsqaUBKTNV-9" value="T" style="edgeStyle=orthogonalEdgeStyle;rounded=0;html=1;jettySize=auto;orthogonalLoop=1;fontSize=11;endArrow=block;endFill=0;endSize=8;strokeWidth=1;shadow=0;labelBackgroundColor=none;" parent="WIyWlLk6GJQsqaUBKTNV-1" source="WIyWlLk6GJQsqaUBKTNV-10" target="WIyWlLk6GJQsqaUBKTNV-12" edge="1">
          <mxGeometry y="10" relative="1" as="geometry">
            <mxPoint as="offset" />
          </mxGeometry>
        </mxCell>
        <mxCell id="WIyWlLk6GJQsqaUBKTNV-10" value="score &amp;gt;= 9" style="rhombus;whiteSpace=wrap;html=1;shadow=0;fontFamily=Helvetica;fontSize=12;align=center;strokeWidth=1;spacing=6;spacingTop=-4;" parent="WIyWlLk6GJQsqaUBKTNV-1" vertex="1">
          <mxGeometry x="170" y="260" width="100" height="60" as="geometry" />
        </mxCell>
        <mxCell id="VV4j1f6UAE6JIWvA8AAO-12" style="edgeStyle=orthogonalEdgeStyle;rounded=0;orthogonalLoop=1;jettySize=auto;html=1;" edge="1" parent="WIyWlLk6GJQsqaUBKTNV-1" source="WIyWlLk6GJQsqaUBKTNV-11" target="VV4j1f6UAE6JIWvA8AAO-11">
          <mxGeometry relative="1" as="geometry" />
        </mxCell>
        <mxCell id="VV4j1f6UAE6JIWvA8AAO-14" style="edgeStyle=orthogonalEdgeStyle;rounded=0;orthogonalLoop=1;jettySize=auto;html=1;exitX=0.5;exitY=1;exitDx=0;exitDy=0;entryX=0.5;entryY=0;entryDx=0;entryDy=0;" edge="1" parent="WIyWlLk6GJQsqaUBKTNV-1" source="WIyWlLk6GJQsqaUBKTNV-11" target="VV4j1f6UAE6JIWvA8AAO-13">
          <mxGeometry relative="1" as="geometry" />
        </mxCell>
        <mxCell id="WIyWlLk6GJQsqaUBKTNV-11" value="score&amp;gt;=8" style="rhombus;whiteSpace=wrap;html=1;shadow=0;fontFamily=Helvetica;fontSize=12;align=center;strokeWidth=1;spacing=6;spacingTop=-4;" parent="WIyWlLk6GJQsqaUBKTNV-1" vertex="1">
          <mxGeometry x="170" y="360" width="100" height="50" as="geometry" />
        </mxCell>
        <mxCell id="VV4j1f6UAE6JIWvA8AAO-28" style="edgeStyle=orthogonalEdgeStyle;rounded=0;orthogonalLoop=1;jettySize=auto;html=1;entryX=0;entryY=0.5;entryDx=0;entryDy=0;" edge="1" parent="WIyWlLk6GJQsqaUBKTNV-1" source="WIyWlLk6GJQsqaUBKTNV-12" target="VV4j1f6UAE6JIWvA8AAO-6">
          <mxGeometry relative="1" as="geometry" />
        </mxCell>
        <mxCell id="WIyWlLk6GJQsqaUBKTNV-12" value="res = &#39;A&#39;" style="rounded=1;whiteSpace=wrap;html=1;fontSize=12;glass=0;strokeWidth=1;shadow=0;" parent="WIyWlLk6GJQsqaUBKTNV-1" vertex="1">
          <mxGeometry x="320" y="300" width="70" height="40" as="geometry" />
        </mxCell>
        <mxCell id="VV4j1f6UAE6JIWvA8AAO-1" style="edgeStyle=orthogonalEdgeStyle;rounded=0;orthogonalLoop=1;jettySize=auto;html=1;entryX=0;entryY=0.5;entryDx=0;entryDy=0;" edge="1" parent="WIyWlLk6GJQsqaUBKTNV-1" source="VV4j1f6UAE6JIWvA8AAO-0" target="VV4j1f6UAE6JIWvA8AAO-8">
          <mxGeometry relative="1" as="geometry">
            <mxPoint x="160" y="50" as="targetPoint" />
          </mxGeometry>
        </mxCell>
        <mxCell id="VV4j1f6UAE6JIWvA8AAO-0" value="Entry" style="ellipse;whiteSpace=wrap;html=1;aspect=fixed;fillColor=#dae8fc;strokeColor=#6c8ebf;" vertex="1" parent="WIyWlLk6GJQsqaUBKTNV-1">
          <mxGeometry x="90" y="30" width="40" height="40" as="geometry" />
        </mxCell>
        <mxCell id="VV4j1f6UAE6JIWvA8AAO-3" value="T" style="text;html=1;align=center;verticalAlign=middle;resizable=0;points=[];autosize=1;" vertex="1" parent="WIyWlLk6GJQsqaUBKTNV-1">
          <mxGeometry x="280" y="190" width="20" height="20" as="geometry" />
        </mxCell>
        <mxCell id="VV4j1f6UAE6JIWvA8AAO-6" value="Exit" style="ellipse;whiteSpace=wrap;html=1;aspect=fixed;fillColor=#dae8fc;strokeColor=#6c8ebf;" vertex="1" parent="WIyWlLk6GJQsqaUBKTNV-1">
          <mxGeometry x="520" y="320" width="40" height="40" as="geometry" />
        </mxCell>
        <mxCell id="VV4j1f6UAE6JIWvA8AAO-10" style="edgeStyle=orthogonalEdgeStyle;rounded=0;orthogonalLoop=1;jettySize=auto;html=1;entryX=0.5;entryY=0;entryDx=0;entryDy=0;" edge="1" parent="WIyWlLk6GJQsqaUBKTNV-1" source="VV4j1f6UAE6JIWvA8AAO-7" target="VV4j1f6UAE6JIWvA8AAO-6">
          <mxGeometry relative="1" as="geometry" />
        </mxCell>
        <mxCell id="VV4j1f6UAE6JIWvA8AAO-7" value="return &quot;I&quot;" style="rounded=1;whiteSpace=wrap;html=1;" vertex="1" parent="WIyWlLk6GJQsqaUBKTNV-1">
          <mxGeometry x="320" y="190" width="80" height="40" as="geometry" />
        </mxCell>
        <mxCell id="VV4j1f6UAE6JIWvA8AAO-9" style="edgeStyle=orthogonalEdgeStyle;rounded=0;orthogonalLoop=1;jettySize=auto;html=1;entryX=0.5;entryY=0;entryDx=0;entryDy=0;" edge="1" parent="WIyWlLk6GJQsqaUBKTNV-1" source="VV4j1f6UAE6JIWvA8AAO-8" target="WIyWlLk6GJQsqaUBKTNV-3">
          <mxGeometry relative="1" as="geometry" />
        </mxCell>
        <mxCell id="VV4j1f6UAE6JIWvA8AAO-8" value="int score" style="ellipse;whiteSpace=wrap;html=1;" vertex="1" parent="WIyWlLk6GJQsqaUBKTNV-1">
          <mxGeometry x="185" y="30" width="70" height="40" as="geometry" />
        </mxCell>
        <mxCell id="VV4j1f6UAE6JIWvA8AAO-29" style="edgeStyle=orthogonalEdgeStyle;rounded=0;orthogonalLoop=1;jettySize=auto;html=1;exitX=1;exitY=0.5;exitDx=0;exitDy=0;entryX=0;entryY=1;entryDx=0;entryDy=0;" edge="1" parent="WIyWlLk6GJQsqaUBKTNV-1" source="VV4j1f6UAE6JIWvA8AAO-11" target="VV4j1f6UAE6JIWvA8AAO-6">
          <mxGeometry relative="1" as="geometry" />
        </mxCell>
        <mxCell id="VV4j1f6UAE6JIWvA8AAO-11" value="res = &#39;B&#39;" style="rounded=1;whiteSpace=wrap;html=1;fontSize=12;glass=0;strokeWidth=1;shadow=0;" vertex="1" parent="WIyWlLk6GJQsqaUBKTNV-1">
          <mxGeometry x="325" y="390" width="70" height="40" as="geometry" />
        </mxCell>
        <mxCell id="VV4j1f6UAE6JIWvA8AAO-16" style="edgeStyle=orthogonalEdgeStyle;rounded=0;orthogonalLoop=1;jettySize=auto;html=1;entryX=0;entryY=0.5;entryDx=0;entryDy=0;" edge="1" parent="WIyWlLk6GJQsqaUBKTNV-1" source="VV4j1f6UAE6JIWvA8AAO-13" target="VV4j1f6UAE6JIWvA8AAO-15">
          <mxGeometry relative="1" as="geometry" />
        </mxCell>
        <mxCell id="VV4j1f6UAE6JIWvA8AAO-22" style="edgeStyle=orthogonalEdgeStyle;rounded=0;orthogonalLoop=1;jettySize=auto;html=1;entryX=0.5;entryY=0;entryDx=0;entryDy=0;" edge="1" parent="WIyWlLk6GJQsqaUBKTNV-1" source="VV4j1f6UAE6JIWvA8AAO-13" target="VV4j1f6UAE6JIWvA8AAO-20">
          <mxGeometry relative="1" as="geometry" />
        </mxCell>
        <mxCell id="VV4j1f6UAE6JIWvA8AAO-13" value="score &amp;gt;= 6.5" style="rhombus;whiteSpace=wrap;html=1;shadow=0;fontFamily=Helvetica;fontSize=12;align=center;strokeWidth=1;spacing=6;spacingTop=-4;" vertex="1" parent="WIyWlLk6GJQsqaUBKTNV-1">
          <mxGeometry x="170" y="460" width="100" height="60" as="geometry" />
        </mxCell>
        <mxCell id="VV4j1f6UAE6JIWvA8AAO-30" style="edgeStyle=orthogonalEdgeStyle;rounded=0;orthogonalLoop=1;jettySize=auto;html=1;exitX=1;exitY=0.5;exitDx=0;exitDy=0;" edge="1" parent="WIyWlLk6GJQsqaUBKTNV-1" source="VV4j1f6UAE6JIWvA8AAO-15">
          <mxGeometry relative="1" as="geometry">
            <mxPoint x="530" y="360" as="targetPoint" />
          </mxGeometry>
        </mxCell>
        <mxCell id="VV4j1f6UAE6JIWvA8AAO-15" value="res = &#39;C&#39;" style="rounded=1;whiteSpace=wrap;html=1;fontSize=12;glass=0;strokeWidth=1;shadow=0;" vertex="1" parent="WIyWlLk6GJQsqaUBKTNV-1">
          <mxGeometry x="340" y="450" width="70" height="40" as="geometry" />
        </mxCell>
        <mxCell id="VV4j1f6UAE6JIWvA8AAO-17" value="T" style="text;html=1;align=center;verticalAlign=middle;resizable=0;points=[];autosize=1;" vertex="1" parent="WIyWlLk6GJQsqaUBKTNV-1">
          <mxGeometry x="290" y="390" width="20" height="20" as="geometry" />
        </mxCell>
        <mxCell id="VV4j1f6UAE6JIWvA8AAO-18" value="F" style="text;html=1;align=center;verticalAlign=middle;resizable=0;points=[];autosize=1;" vertex="1" parent="WIyWlLk6GJQsqaUBKTNV-1">
          <mxGeometry x="220" y="430" width="20" height="20" as="geometry" />
        </mxCell>
        <mxCell id="VV4j1f6UAE6JIWvA8AAO-19" value="T" style="text;html=1;align=center;verticalAlign=middle;resizable=0;points=[];autosize=1;" vertex="1" parent="WIyWlLk6GJQsqaUBKTNV-1">
          <mxGeometry x="280" y="470" width="20" height="20" as="geometry" />
        </mxCell>
        <mxCell id="VV4j1f6UAE6JIWvA8AAO-25" style="edgeStyle=orthogonalEdgeStyle;rounded=0;orthogonalLoop=1;jettySize=auto;html=1;" edge="1" parent="WIyWlLk6GJQsqaUBKTNV-1" source="VV4j1f6UAE6JIWvA8AAO-20" target="VV4j1f6UAE6JIWvA8AAO-24">
          <mxGeometry relative="1" as="geometry" />
        </mxCell>
        <mxCell id="VV4j1f6UAE6JIWvA8AAO-27" style="edgeStyle=orthogonalEdgeStyle;rounded=0;orthogonalLoop=1;jettySize=auto;html=1;entryX=0.5;entryY=0;entryDx=0;entryDy=0;" edge="1" parent="WIyWlLk6GJQsqaUBKTNV-1" source="VV4j1f6UAE6JIWvA8AAO-20" target="VV4j1f6UAE6JIWvA8AAO-26">
          <mxGeometry relative="1" as="geometry" />
        </mxCell>
        <mxCell id="VV4j1f6UAE6JIWvA8AAO-20" value="score &amp;gt;= 5" style="rhombus;whiteSpace=wrap;html=1;shadow=0;fontFamily=Helvetica;fontSize=12;align=center;strokeWidth=1;spacing=6;spacingTop=-4;" vertex="1" parent="WIyWlLk6GJQsqaUBKTNV-1">
          <mxGeometry x="170" y="540" width="100" height="60" as="geometry" />
        </mxCell>
        <mxCell id="VV4j1f6UAE6JIWvA8AAO-23" value="F" style="text;html=1;align=center;verticalAlign=middle;resizable=0;points=[];autosize=1;" vertex="1" parent="WIyWlLk6GJQsqaUBKTNV-1">
          <mxGeometry x="220" y="520" width="20" height="20" as="geometry" />
        </mxCell>
        <mxCell id="VV4j1f6UAE6JIWvA8AAO-31" style="edgeStyle=orthogonalEdgeStyle;rounded=0;orthogonalLoop=1;jettySize=auto;html=1;entryX=0.5;entryY=1;entryDx=0;entryDy=0;" edge="1" parent="WIyWlLk6GJQsqaUBKTNV-1" source="VV4j1f6UAE6JIWvA8AAO-24" target="VV4j1f6UAE6JIWvA8AAO-6">
          <mxGeometry relative="1" as="geometry" />
        </mxCell>
        <mxCell id="VV4j1f6UAE6JIWvA8AAO-24" value="res = &#39;D&#39;" style="rounded=1;whiteSpace=wrap;html=1;fontSize=12;glass=0;strokeWidth=1;shadow=0;" vertex="1" parent="WIyWlLk6GJQsqaUBKTNV-1">
          <mxGeometry x="320" y="565" width="70" height="40" as="geometry" />
        </mxCell>
        <mxCell id="VV4j1f6UAE6JIWvA8AAO-32" style="edgeStyle=orthogonalEdgeStyle;rounded=0;orthogonalLoop=1;jettySize=auto;html=1;exitX=1;exitY=0.5;exitDx=0;exitDy=0;entryX=0.75;entryY=1.025;entryDx=0;entryDy=0;entryPerimeter=0;" edge="1" parent="WIyWlLk6GJQsqaUBKTNV-1" source="VV4j1f6UAE6JIWvA8AAO-26" target="VV4j1f6UAE6JIWvA8AAO-6">
          <mxGeometry relative="1" as="geometry" />
        </mxCell>
        <mxCell id="VV4j1f6UAE6JIWvA8AAO-26" value="res = &#39;F&#39;" style="rounded=1;whiteSpace=wrap;html=1;fontSize=12;glass=0;strokeWidth=1;shadow=0;" vertex="1" parent="WIyWlLk6GJQsqaUBKTNV-1">
          <mxGeometry x="185" y="640" width="70" height="40" as="geometry" />
        </mxCell>
        <mxCell id="VV4j1f6UAE6JIWvA8AAO-33" value="T" style="text;html=1;align=center;verticalAlign=middle;resizable=0;points=[];autosize=1;" vertex="1" parent="WIyWlLk6GJQsqaUBKTNV-1">
          <mxGeometry x="280" y="550" width="20" height="20" as="geometry" />
        </mxCell>
        <mxCell id="VV4j1f6UAE6JIWvA8AAO-34" value="F" style="text;html=1;align=center;verticalAlign=middle;resizable=0;points=[];autosize=1;" vertex="1" parent="WIyWlLk6GJQsqaUBKTNV-1">
          <mxGeometry x="220" y="600" width="20" height="20" as="geometry" />
        </mxCell>
      </root>
    </mxGraphModel>
  </diagram>
  <diagram id="t-Sy2hSqL80XpdF7RRPH" name="Page-2">
    <mxGraphModel dx="868" dy="479" grid="1" gridSize="10" guides="1" tooltips="1" connect="1" arrows="1" fold="1" page="1" pageScale="1" pageWidth="850" pageHeight="1100" math="0" shadow="0">
      <root>
        <mxCell id="lChxg0xcDmJHVzmYVUMo-0" />
        <mxCell id="lChxg0xcDmJHVzmYVUMo-1" parent="lChxg0xcDmJHVzmYVUMo-0" />
        <mxCell id="lChxg0xcDmJHVzmYVUMo-8" style="edgeStyle=orthogonalEdgeStyle;rounded=0;orthogonalLoop=1;jettySize=auto;html=1;" edge="1" parent="lChxg0xcDmJHVzmYVUMo-1" source="lChxg0xcDmJHVzmYVUMo-2" target="lChxg0xcDmJHVzmYVUMo-7">
          <mxGeometry relative="1" as="geometry" />
        </mxCell>
        <mxCell id="lChxg0xcDmJHVzmYVUMo-2" value="Entry" style="ellipse;whiteSpace=wrap;html=1;aspect=fixed;fillColor=#dae8fc;strokeColor=#6c8ebf;" vertex="1" parent="lChxg0xcDmJHVzmYVUMo-1">
          <mxGeometry x="160" y="100" width="50" height="50" as="geometry" />
        </mxCell>
        <mxCell id="lChxg0xcDmJHVzmYVUMo-16" style="edgeStyle=orthogonalEdgeStyle;rounded=0;orthogonalLoop=1;jettySize=auto;html=1;entryX=0.5;entryY=0;entryDx=0;entryDy=0;" edge="1" parent="lChxg0xcDmJHVzmYVUMo-1" source="lChxg0xcDmJHVzmYVUMo-4" target="lChxg0xcDmJHVzmYVUMo-11">
          <mxGeometry relative="1" as="geometry" />
        </mxCell>
        <mxCell id="lChxg0xcDmJHVzmYVUMo-4" value="&lt;div&gt;var fullName = $(&#39;id&#39;).val();&lt;/div&gt;&lt;div&gt;const reg;&lt;br&gt;&lt;/div&gt;" style="rounded=0;whiteSpace=wrap;html=1;" vertex="1" parent="lChxg0xcDmJHVzmYVUMo-1">
          <mxGeometry x="230" y="170" width="180" height="55" as="geometry" />
        </mxCell>
        <mxCell id="lChxg0xcDmJHVzmYVUMo-10" style="edgeStyle=orthogonalEdgeStyle;rounded=0;orthogonalLoop=1;jettySize=auto;html=1;entryX=0.5;entryY=0;entryDx=0;entryDy=0;" edge="1" parent="lChxg0xcDmJHVzmYVUMo-1" source="lChxg0xcDmJHVzmYVUMo-7" target="lChxg0xcDmJHVzmYVUMo-4">
          <mxGeometry relative="1" as="geometry" />
        </mxCell>
        <mxCell id="lChxg0xcDmJHVzmYVUMo-7" value="" style="ellipse;whiteSpace=wrap;html=1;aspect=fixed;" vertex="1" parent="lChxg0xcDmJHVzmYVUMo-1">
          <mxGeometry x="300" y="105" width="40" height="40" as="geometry" />
        </mxCell>
        <mxCell id="lChxg0xcDmJHVzmYVUMo-17" value="" style="edgeStyle=orthogonalEdgeStyle;rounded=0;orthogonalLoop=1;jettySize=auto;html=1;" edge="1" parent="lChxg0xcDmJHVzmYVUMo-1" source="lChxg0xcDmJHVzmYVUMo-11" target="lChxg0xcDmJHVzmYVUMo-12">
          <mxGeometry relative="1" as="geometry" />
        </mxCell>
        <mxCell id="lChxg0xcDmJHVzmYVUMo-18" style="edgeStyle=orthogonalEdgeStyle;rounded=0;orthogonalLoop=1;jettySize=auto;html=1;entryX=0;entryY=0.5;entryDx=0;entryDy=0;" edge="1" parent="lChxg0xcDmJHVzmYVUMo-1" source="lChxg0xcDmJHVzmYVUMo-11" target="lChxg0xcDmJHVzmYVUMo-13">
          <mxGeometry relative="1" as="geometry" />
        </mxCell>
        <mxCell id="lChxg0xcDmJHVzmYVUMo-11" value="&lt;p&gt;&lt;b&gt;&lt;span style=&quot;font-size: 10.5pt ; font-family: &amp;#34;courier new&amp;#34; ; background-color: transparent ; font-style: normal ; font-variant: normal ; text-decoration: none ; vertical-align: baseline&quot; id=&quot;docs-internal-guid-e1c07503-7fff-b6fd-41c2-de6db7263f67&quot;&gt;reg&lt;/span&gt;&lt;span style=&quot;font-size: 10.5pt ; font-family: &amp;#34;courier new&amp;#34; ; background-color: transparent ; font-style: normal ; font-variant: normal ; text-decoration: none ; vertical-align: baseline&quot;&gt;.&lt;/span&gt;&lt;span style=&quot;font-size: 10.5pt ; font-family: &amp;#34;courier new&amp;#34; ; background-color: transparent ; font-style: normal ; font-variant: normal ; text-decoration: none ; vertical-align: baseline&quot;&gt;test&lt;/span&gt;&lt;span style=&quot;font-size: 10.5pt ; font-family: &amp;#34;courier new&amp;#34; ; background-color: transparent ; font-style: normal ; font-variant: normal ; text-decoration: none ; vertical-align: baseline&quot;&gt;(&lt;/span&gt;&lt;span style=&quot;font-size: 10.5pt ; font-family: &amp;#34;courier new&amp;#34; ; background-color: transparent ; font-style: normal ; font-variant: normal ; text-decoration: none ; vertical-align: baseline&quot;&gt;name&lt;/span&gt;&lt;span style=&quot;font-size: 10.5pt ; font-family: &amp;#34;courier new&amp;#34; ; background-color: transparent ; font-style: normal ; font-variant: normal ; text-decoration: none ; vertical-align: baseline&quot;&gt;)&lt;/span&gt;&lt;/b&gt;&lt;/p&gt;" style="rhombus;whiteSpace=wrap;html=1;" vertex="1" parent="lChxg0xcDmJHVzmYVUMo-1">
          <mxGeometry x="250" y="260" width="140" height="70" as="geometry" />
        </mxCell>
        <mxCell id="lChxg0xcDmJHVzmYVUMo-19" style="edgeStyle=orthogonalEdgeStyle;rounded=0;orthogonalLoop=1;jettySize=auto;html=1;" edge="1" parent="lChxg0xcDmJHVzmYVUMo-1" source="lChxg0xcDmJHVzmYVUMo-12" target="lChxg0xcDmJHVzmYVUMo-15">
          <mxGeometry relative="1" as="geometry" />
        </mxCell>
        <mxCell id="lChxg0xcDmJHVzmYVUMo-12" value="return false" style="ellipse;whiteSpace=wrap;html=1;" vertex="1" parent="lChxg0xcDmJHVzmYVUMo-1">
          <mxGeometry x="280" y="380" width="70" height="50" as="geometry" />
        </mxCell>
        <mxCell id="lChxg0xcDmJHVzmYVUMo-20" style="edgeStyle=orthogonalEdgeStyle;rounded=0;orthogonalLoop=1;jettySize=auto;html=1;entryX=0.3;entryY=0.08;entryDx=0;entryDy=0;entryPerimeter=0;" edge="1" parent="lChxg0xcDmJHVzmYVUMo-1" source="lChxg0xcDmJHVzmYVUMo-13" target="lChxg0xcDmJHVzmYVUMo-15">
          <mxGeometry relative="1" as="geometry" />
        </mxCell>
        <mxCell id="lChxg0xcDmJHVzmYVUMo-13" value="return true" style="ellipse;whiteSpace=wrap;html=1;" vertex="1" parent="lChxg0xcDmJHVzmYVUMo-1">
          <mxGeometry x="440" y="270" width="70" height="50" as="geometry" />
        </mxCell>
        <mxCell id="lChxg0xcDmJHVzmYVUMo-15" value="Exit" style="ellipse;whiteSpace=wrap;html=1;aspect=fixed;fillColor=#dae8fc;strokeColor=#6c8ebf;" vertex="1" parent="lChxg0xcDmJHVzmYVUMo-1">
          <mxGeometry x="440" y="390" width="50" height="50" as="geometry" />
        </mxCell>
        <mxCell id="lChxg0xcDmJHVzmYVUMo-21" value="F" style="text;html=1;align=center;verticalAlign=middle;resizable=0;points=[];autosize=1;" vertex="1" parent="lChxg0xcDmJHVzmYVUMo-1">
          <mxGeometry x="400" y="270" width="20" height="20" as="geometry" />
        </mxCell>
        <mxCell id="lChxg0xcDmJHVzmYVUMo-22" value="T" style="text;html=1;align=center;verticalAlign=middle;resizable=0;points=[];autosize=1;" vertex="1" parent="lChxg0xcDmJHVzmYVUMo-1">
          <mxGeometry x="320" y="340" width="20" height="20" as="geometry" />
        </mxCell>
      </root>
    </mxGraphModel>
  </diagram>
  <diagram id="egZ4EiAgTdxSZsOZL7eO" name="Page-3">
    <mxGraphModel dx="868" dy="479" grid="1" gridSize="10" guides="1" tooltips="1" connect="1" arrows="1" fold="1" page="1" pageScale="1" pageWidth="850" pageHeight="1100" math="0" shadow="0">
      <root>
        <mxCell id="bfUnOmeBf8dHJUsA_w-4-0" />
        <mxCell id="bfUnOmeBf8dHJUsA_w-4-1" parent="bfUnOmeBf8dHJUsA_w-4-0" />
        <mxCell id="ij3YlOQ7KUOcg2yLbArp-0" style="edgeStyle=orthogonalEdgeStyle;rounded=0;orthogonalLoop=1;jettySize=auto;html=1;" edge="1" source="ij3YlOQ7KUOcg2yLbArp-1" target="ij3YlOQ7KUOcg2yLbArp-5" parent="bfUnOmeBf8dHJUsA_w-4-1">
          <mxGeometry relative="1" as="geometry" />
        </mxCell>
        <mxCell id="ij3YlOQ7KUOcg2yLbArp-1" value="Entry" style="ellipse;whiteSpace=wrap;html=1;aspect=fixed;fillColor=#dae8fc;strokeColor=#6c8ebf;" vertex="1" parent="bfUnOmeBf8dHJUsA_w-4-1">
          <mxGeometry x="80" y="40" width="50" height="50" as="geometry" />
        </mxCell>
        <mxCell id="ij3YlOQ7KUOcg2yLbArp-2" style="edgeStyle=orthogonalEdgeStyle;rounded=0;orthogonalLoop=1;jettySize=auto;html=1;entryX=0.5;entryY=0;entryDx=0;entryDy=0;" edge="1" source="ij3YlOQ7KUOcg2yLbArp-3" target="ij3YlOQ7KUOcg2yLbArp-8" parent="bfUnOmeBf8dHJUsA_w-4-1">
          <mxGeometry relative="1" as="geometry" />
        </mxCell>
        <mxCell id="ij3YlOQ7KUOcg2yLbArp-3" value="&lt;div&gt;var password = $(&#39;id&#39;).val();&lt;/div&gt;" style="rounded=0;whiteSpace=wrap;html=1;" vertex="1" parent="bfUnOmeBf8dHJUsA_w-4-1">
          <mxGeometry x="150" y="110" width="180" height="55" as="geometry" />
        </mxCell>
        <mxCell id="ij3YlOQ7KUOcg2yLbArp-4" style="edgeStyle=orthogonalEdgeStyle;rounded=0;orthogonalLoop=1;jettySize=auto;html=1;entryX=0.5;entryY=0;entryDx=0;entryDy=0;" edge="1" source="ij3YlOQ7KUOcg2yLbArp-5" target="ij3YlOQ7KUOcg2yLbArp-3" parent="bfUnOmeBf8dHJUsA_w-4-1">
          <mxGeometry relative="1" as="geometry" />
        </mxCell>
        <mxCell id="ij3YlOQ7KUOcg2yLbArp-5" value="" style="ellipse;whiteSpace=wrap;html=1;aspect=fixed;" vertex="1" parent="bfUnOmeBf8dHJUsA_w-4-1">
          <mxGeometry x="220" y="45" width="40" height="40" as="geometry" />
        </mxCell>
        <mxCell id="ij3YlOQ7KUOcg2yLbArp-6" value="" style="edgeStyle=orthogonalEdgeStyle;rounded=0;orthogonalLoop=1;jettySize=auto;html=1;" edge="1" source="ij3YlOQ7KUOcg2yLbArp-8" target="ij3YlOQ7KUOcg2yLbArp-10" parent="bfUnOmeBf8dHJUsA_w-4-1">
          <mxGeometry relative="1" as="geometry" />
        </mxCell>
        <mxCell id="ij3YlOQ7KUOcg2yLbArp-7" style="edgeStyle=orthogonalEdgeStyle;rounded=0;orthogonalLoop=1;jettySize=auto;html=1;entryX=0;entryY=0.5;entryDx=0;entryDy=0;" edge="1" source="ij3YlOQ7KUOcg2yLbArp-8" target="ij3YlOQ7KUOcg2yLbArp-12" parent="bfUnOmeBf8dHJUsA_w-4-1">
          <mxGeometry relative="1" as="geometry" />
        </mxCell>
        <mxCell id="ij3YlOQ7KUOcg2yLbArp-8" value="password.length &amp;gt;=6" style="rhombus;whiteSpace=wrap;html=1;" vertex="1" parent="bfUnOmeBf8dHJUsA_w-4-1">
          <mxGeometry x="170" y="200" width="140" height="70" as="geometry" />
        </mxCell>
        <mxCell id="ij3YlOQ7KUOcg2yLbArp-9" style="edgeStyle=orthogonalEdgeStyle;rounded=0;orthogonalLoop=1;jettySize=auto;html=1;" edge="1" source="ij3YlOQ7KUOcg2yLbArp-10" target="ij3YlOQ7KUOcg2yLbArp-13" parent="bfUnOmeBf8dHJUsA_w-4-1">
          <mxGeometry relative="1" as="geometry" />
        </mxCell>
        <mxCell id="ij3YlOQ7KUOcg2yLbArp-10" value="return false" style="ellipse;whiteSpace=wrap;html=1;" vertex="1" parent="bfUnOmeBf8dHJUsA_w-4-1">
          <mxGeometry x="200" y="320" width="70" height="50" as="geometry" />
        </mxCell>
        <mxCell id="ij3YlOQ7KUOcg2yLbArp-11" style="edgeStyle=orthogonalEdgeStyle;rounded=0;orthogonalLoop=1;jettySize=auto;html=1;entryX=0.3;entryY=0.08;entryDx=0;entryDy=0;entryPerimeter=0;" edge="1" source="ij3YlOQ7KUOcg2yLbArp-12" target="ij3YlOQ7KUOcg2yLbArp-13" parent="bfUnOmeBf8dHJUsA_w-4-1">
          <mxGeometry relative="1" as="geometry" />
        </mxCell>
        <mxCell id="ij3YlOQ7KUOcg2yLbArp-12" value="return true" style="ellipse;whiteSpace=wrap;html=1;" vertex="1" parent="bfUnOmeBf8dHJUsA_w-4-1">
          <mxGeometry x="360" y="210" width="70" height="50" as="geometry" />
        </mxCell>
        <mxCell id="ij3YlOQ7KUOcg2yLbArp-13" value="Exit" style="ellipse;whiteSpace=wrap;html=1;aspect=fixed;fillColor=#dae8fc;strokeColor=#6c8ebf;" vertex="1" parent="bfUnOmeBf8dHJUsA_w-4-1">
          <mxGeometry x="360" y="330" width="50" height="50" as="geometry" />
        </mxCell>
        <mxCell id="ij3YlOQ7KUOcg2yLbArp-14" value="F" style="text;html=1;align=center;verticalAlign=middle;resizable=0;points=[];autosize=1;" vertex="1" parent="bfUnOmeBf8dHJUsA_w-4-1">
          <mxGeometry x="320" y="210" width="20" height="20" as="geometry" />
        </mxCell>
        <mxCell id="ij3YlOQ7KUOcg2yLbArp-15" value="T" style="text;html=1;align=center;verticalAlign=middle;resizable=0;points=[];autosize=1;" vertex="1" parent="bfUnOmeBf8dHJUsA_w-4-1">
          <mxGeometry x="240" y="280" width="20" height="20" as="geometry" />
        </mxCell>
      </root>
    </mxGraphModel>
  </diagram>
</mxfile>
